<svg width="53" height="42" viewBox="0 0 53 42" fill="none" xmlns="http://www.w3.org/2000/svg">
<path d="M46.6875 27.4583V31.3333H43.125V27.4583H46.6875ZM41.9375 14.5416H38.375V13.2499C38.375 11.1945 39.1257 9.22325 40.4619 7.76984C41.7981 6.31643 43.6103 5.49992 45.5 5.49992C47.3897 5.49992 49.2019 6.31643 50.5381 7.76984C51.8743 9.22325 52.625 11.1945 52.625 13.2499C52.625 15.7558 51.4375 18.1066 49.5612 19.4758L48.8488 19.9666C47.495 20.9999 46.6875 22.5758 46.6875 24.3583V24.8749H43.125V24.3583C43.125 21.2841 44.55 18.4166 46.9012 16.7374L47.59 16.2466C48.5162 15.5749 49.0625 14.4641 49.0625 13.2499C49.0625 12.2222 48.6872 11.2366 48.0191 10.5099C47.351 9.78318 46.4448 9.37492 45.5 9.37492C44.5552 9.37492 43.649 9.78318 42.9809 10.5099C42.3128 11.2366 41.9375 12.2222 41.9375 13.2499V14.5416ZM19.375 23.5833C25.7162 23.5833 38.375 27.0449 38.375 33.9166V41.6666H0.375V33.9166C0.375 27.0449 13.0337 23.5833 19.375 23.5833ZM19.375 0.333252C21.8946 0.333252 24.3109 1.42194 26.0925 3.35981C27.8741 5.29769 28.875 7.92601 28.875 10.6666C28.875 13.4072 27.8741 16.0355 26.0925 17.9734C24.3109 19.9112 21.8946 20.9999 19.375 20.9999C16.8554 20.9999 14.4391 19.9112 12.6575 17.9734C10.8759 16.0355 9.875 13.4072 9.875 10.6666C9.875 7.92601 10.8759 5.29769 12.6575 3.35981C14.4391 1.42194 16.8554 0.333252 19.375 0.333252ZM19.375 28.4916C12.3212 28.4916 4.8875 32.2633 4.8875 33.9166V36.7583H33.8625V33.9166C33.8625 32.2633 26.4288 28.4916 19.375 28.4916ZM19.375 5.24159C18.0522 5.24159 16.7836 5.81315 15.8483 6.83053C14.913 7.84792 14.3875 9.22779 14.3875 10.6666C14.3875 12.1054 14.913 13.4853 15.8483 14.5026C16.7836 15.52 18.0522 16.0916 19.375 16.0916C20.6978 16.0916 21.9664 15.52 22.9017 14.5026C23.837 13.4853 24.3625 12.1054 24.3625 10.6666C24.3625 9.22779 23.837 7.84792 22.9017 6.83053C21.9664 5.81315 20.6978 5.24159 19.375 5.24159Z" fill="url(#paint0_linear_2014_5163)" fill-opacity="0.85"/>
<defs>
<linearGradient id="paint0_linear_2014_5163" x1="0.375" y1="0.333252" x2="54.4389" y2="1.49292" gradientUnits="userSpaceOnUse">
<stop stop-color="#1A2FEE"/>
<stop offset="0.979167" stop-color="#C41AEE"/>
</linearGradient>
</defs>
</svg>
